<svg width="553" height="461" viewBox="0 0 553 461" fill="none" xmlns="http://www.w3.org/2000/svg">
<rect width="553" height="461" fill="white"/>
<path d="M214.96 242.175C210.435 242.175 206.276 240.293 201.945 240.172C194.948 239.978 191.506 245.372 187.706 250.851C182.344 258.582 182.793 274.378 191.933 279.217C211.533 289.593 231.265 263.854 221.912 245.734C221.032 244.028 217.955 241.727 217.685 239.838C217.305 237.175 223.059 240.172 225.75 240.172C228.716 240.172 231.683 240.172 234.649 240.172C242.844 240.172 251.038 240.172 259.233 240.172C262.755 240.172 266.278 240.172 269.8 240.172C274.522 240.172 278.431 238.17 283.26 238.17C292.03 238.17 300.799 238.17 309.568 238.17C316.576 238.17 323.584 238.17 330.592 238.17C339.841 238.17 350.435 236.565 359.57 238.226C364.048 239.04 362.915 251.343 361.628 254.689C359.138 261.164 357.432 267.19 352.117 272.209C346.966 277.074 331.95 274.623 326.866 271.43C320.004 267.122 315.873 253.128 324.53 248.181C332.158 243.823 341.986 246.779 349.503 242.731C355.968 239.25 360.067 243.166 366.133 244.177" stroke="black" stroke-width="3" stroke-linecap="round"/>
<path d="M345.109 240.172C358.882 240.172 373.781 241.66 387.38 239.394C396.747 237.832 412.82 235.992 413.187 223.153C413.403 215.606 412.154 208.128 408.404 202.129C407.266 200.308 401.619 198.296 399.616 198.124C394.924 197.722 390.563 197.123 385.711 197.123C382.068 197.123 377.552 196.466 374.087 197.679C371.674 198.523 363.483 200.885 361.684 202.685C358.447 205.921 342.295 197.207 337.6 195.121C334.719 193.84 331.567 191.701 329.424 189.559C326.478 186.612 325.258 182.5 322.472 179.714C319.432 176.674 315.278 174.3 312.071 171.093C308.606 167.628 306.961 165.984 302.06 164.864C272.607 158.132 240.535 160.08 210.51 160.08C202.331 160.08 193.521 160.874 185.593 163.084C180.933 164.383 170.909 166.666 170.909 172.317C170.909 176.016 169.908 179.546 169.908 183.329C169.908 187.759 166.905 191.152 166.905 195.621C166.905 199.375 167.953 204.462 165.403 207.579C161.032 212.921 153.937 215.354 148.05 218.592C141.754 222.055 139.525 228.554 146.381 232.163C156.551 237.515 168.675 236.168 179.808 236.168C200.542 236.168 220.343 237.878 240.99 240.172" stroke="black" stroke-width="3" stroke-linecap="round"/>
<path d="M290.046 173.095C279.572 173.095 269.512 173.991 259.455 177.1C256.38 178.051 244.145 181.092 243.993 185.332C243.608 196.105 263.128 199.937 270.802 200.126C277.507 200.292 283.151 199.136 289.045 196.344C294.537 193.742 308.17 193.316 304.841 183.329C303.729 179.994 297.004 176.282 293.606 176.099C286.131 175.695 278.51 176.099 271.024 176.099" stroke="black" stroke-width="3" stroke-linecap="round"/>
<path d="M410.184 206.133C413.768 205.922 415.573 202.129 419.75 202.129C421.326 202.129 422.822 202.158 424.089 201.072C424.484 200.733 425.201 199.112 425.201 200.293C425.201 202.889 425.201 205.484 425.201 208.08C425.201 211.714 429.383 216.032 423.755 216.145C417.902 216.262 412.033 216.145 406.179 216.145" stroke="black" stroke-width="3" stroke-linecap="round"/>
</svg>
