<svg width="405" height="354" viewBox="0 0 405 354" fill="none" xmlns="http://www.w3.org/2000/svg">
<g id="mracek">
<path id="Vector 20" d="M65.7668 111.347C65.8253 105.081 71.7075 28.0835 78.0806 30.401C80.3467 31.225 83.4639 38.4329 84.2376 39.6364C91.6201 51.1202 100.18 61.5286 109.59 71.417C112.652 74.6346 125.989 90.9498 132.769 90.5216C138.642 90.1507 147.622 68.3007 148.795 66.1655C159.916 45.923 171.34 25.8785 184.197 6.67869C189.78 -1.65861 190.111 3.58741 192.346 11.3869C199.3 35.6529 205.976 60.0434 213.352 84.1836C217.869 98.9648 218.897 97.6208 228.201 84.7269C243.129 64.0394 257.243 41.0111 278.181 25.7833C284.913 20.8871 290.284 21.7088 298.734 21.7088C302.168 21.7088 314.795 19.0129 315.032 24.3346C315.886 43.5495 315.742 63.9892 313.402 83.0971C312.827 87.7977 310.125 86.2723 308.966 89.254C306.925 94.5023 323.66 92.2436 325.082 92.1514C342.335 91.0332 356.76 91.3565 372.708 98.3083C378.907 101.011 388.396 114.006 380.042 119.767C368.766 127.543 356.685 128.602 348.714 141.045C344.737 147.252 334.375 159.466 345.183 161.96C364.766 166.479 397.97 169.132 401.863 193.197C405.471 215.504 401.603 226.921 386.47 245.169C377.861 255.551 369.397 248.418 359.76 242.091C355.927 239.574 335.159 219.043 334.77 228.962C333.962 249.566 338.685 273.231 334.318 293.429C331.565 306.162 313.376 311.453 302.628 314.163C286.217 318.3 267.29 316.674 251.923 309.455C234.344 301.196 232.456 289.886 232.004 272.694C231.935 270.062 231.993 263.551 230.284 261.558C230.115 261.36 229.749 261.77 229.65 262.01C227.28 267.764 225.812 273.85 223.855 279.757C217.936 297.622 211.965 315.53 204.932 332.996C204.451 334.188 198.52 352.27 193.614 352.191C189.573 352.126 183.868 336.321 183.02 334.626C175.543 319.673 166.482 305.798 158.302 291.256C150.245 276.932 143.962 257.087 132.225 245.35C126.831 239.956 127.108 268.451 126.25 270.34C115.535 293.913 80.8742 272.638 68.2114 265.541C59.174 260.477 26.11 255.267 40.2336 237.292C44.1526 232.304 52.8112 230.625 57.799 226.517C62.2972 222.813 55.3523 224.035 53.0907 223.801C47.9271 223.267 47.0256 212.894 45.6662 209.495C41.0723 198.01 34.1293 190.154 26.4711 180.884C20.1105 173.184 8.68331 172.833 4.01637 163.499C0.465293 156.397 0.287024 143.942 10.2638 143.942C25.7931 143.942 41.8024 144.917 57.2557 143.58C68.3608 142.619 54.8758 137.216 51.461 133.801C48.1501 130.49 14.7341 93.2446 22.6683 88.7107C24.0081 87.9451 26.0209 88.7079 27.0143 89.6162C35.1818 97.0836 43.099 104.034 52.9097 109.355C58.7176 112.505 64.2872 114.756 69.0263 119.495" stroke="black" stroke-width="3" stroke-linecap="round"/>
</g>
</svg>
