<svg width="360" height="350" viewBox="0 0 360 350" fill="none" xmlns="http://www.w3.org/2000/svg">
<g id="slunicko">
<path id="Vector 10" d="M199.43 111.266C199.43 98.7172 163.881 101.487 157.146 101.487C140.865 101.487 121.946 124.592 113.866 137.161C107.579 146.942 109.792 162.73 109.792 174.465C109.792 187.942 107.644 205.229 114.681 217.292C118.453 223.758 119.858 230.594 124.46 236.759C131.016 245.542 139.186 251.614 148.001 257.946C157.712 264.922 166.023 266.095 177.428 266.095C193.186 266.095 208.013 261.123 223.061 257.222C233.139 254.609 240.191 251.002 244.701 241.648C251.519 227.507 254.196 211.786 260.637 197.735C266.752 184.393 266.461 173.509 266.25 158.53C266.01 141.446 259.777 120.65 245.425 111.266C238.536 106.762 234.057 106.377 225.596 106.377C220.608 106.377 216.615 104.056 211.743 103.479C199.458 102.025 187.244 103.531 174.983 101.487" stroke="black" stroke-width="3" stroke-linecap="round"/>
<path id="Vector 11" d="M188.021 67.2622C194.532 49.033 202.916 30.4983 207.578 11.8498" stroke="black" stroke-width="3" stroke-linecap="round"/>
<path id="Vector 12" d="M251.582 83.56C254.747 83.2435 256.711 82.4505 259.641 80.8437C274.541 72.6728 288.71 63.5407 304.188 56.397C318.229 49.9165 335.092 41.1858 350.999 41.1858" stroke="black" stroke-width="3" stroke-linecap="round"/>
<path id="Vector 13" d="M295.586 153.64C316.281 153.64 336.799 152.011 357.518 152.011" stroke="black" stroke-width="3" stroke-linecap="round"/>
<path id="Vector 14" d="M289.067 210.682C285.896 213.22 347.778 253.08 355.888 257.946" stroke="black" stroke-width="3" stroke-linecap="round"/>
<path id="Vector 15" d="M230.395 274.244C236.881 277.126 241.212 300.734 243.433 306.658C246.894 315.887 253.212 326.055 253.212 336.175" stroke="black" stroke-width="3" stroke-linecap="round"/>
<path id="Vector 16" d="M148.906 288.912C128.004 306.945 111.513 332.312 88.6047 347.584" stroke="black" stroke-width="3" stroke-linecap="round"/>
<path id="Vector 17" d="M51.1199 228.61C34.7956 229.215 18.5794 230.24 2.22662 230.24" stroke="black" stroke-width="3" stroke-linecap="round"/>
<path id="Vector 18" d="M77.1963 130.823C74.9743 120.454 64.0201 112.184 56.9146 105.29C44.3046 93.0556 34.22 82.0859 25.0435 67.2622" stroke="black" stroke-width="3" stroke-linecap="round"/>
<path id="Vector 19" d="M111.422 73.7813C101.104 50.0887 95.039 27.2949 90.2345 2.07117" stroke="black" stroke-width="3" stroke-linecap="round"/>
</g>
</svg>
